<svg width="480" height="130" xmlns="http://www.w3.org/2000/svg" xmlns:xlink="http://www.w3.org/1999/xlink"><defs><path id="a" d="M0 127.696h477.771V0H0z"/></defs><g fill="none" fill-rule="evenodd"><path fill="#0A94F2" d="M1 1v46.489l31.984 20.417 75.881-47.299-5.383-.407V1z"/><path fill="#0338D6" d="M35.92 93.024 1 70.403v32.227l51.242 26.066 51.24-26.066V44.257l12.396-20.713z"/><path fill="#000" d="M156.277 1.089v27.48l-19.14-27.48h-7.86v41.399h7.86V15.069l19.14 27.419h7.86V1.089zM171.216 1.089v41.399h29.58v-6.839h-21.719V25.028h18.658v-6.839h-18.658V7.928h21.719V1.089zM205.116 1.089v6.839h20.22l-20.64 27.661v6.899h30.241v-6.899h-21.18l20.579-27.661V1.089zM265.416 1.089v17.04h-17.46V1.089h-7.861v41.399h7.861V24.969h17.46v17.519h7.859V1.089zM294.034 1.089l-16.98 41.399h8.399l3-8.04h17.58l3 8.04h8.4l-16.98-41.4h-6.42Zm3.18 9.959 6.36 16.86h-12.66l6.3-16.86ZM170.737 60.581v41.4h-7.86v-26.22l-10.14 18.24h-5.28l-10.32-18.42v26.4h-7.86v-41.4h7.86l12.96 23.7 12.78-23.7z"/><g transform="translate(1 1)"><path d="M203.096 83.34V77.4c0-7.8-3.081-11.7-9.24-11.7-3.16 0-5.511.96-7.05 2.88-1.541 1.92-2.311 4.86-2.311 8.82v5.94c0 3.802.77 6.622 2.311 8.46 1.539 1.84 3.89 2.76 7.05 2.76 6.159 0 9.24-3.74 9.24-11.22m-22.021 13.74c-3-3.038-4.5-7.578-4.5-13.62v-6.48c0-6.038 1.531-10.578 4.59-13.62 3.061-3.038 7.29-4.56 12.691-4.56 5.319 0 9.5 1.522 12.54 4.56 3.039 3.042 4.559 7.582 4.559 13.62v6.48c0 6-1.55 10.53-4.649 13.59-3.101 3.06-7.331 4.59-12.69 4.59-5.361 0-9.541-1.52-12.541-4.56M252.056 59.581v41.4h-7.86l-19.14-27.42v27.42h-7.86v-41.4h7.86l19.14 27.48v-27.48z" fill="#000"/><mask id="b" fill="#fff"><use xlink:href="#a"/></mask><path fill="#000" mask="url(#b)" d="M259.495 100.981h7.859v-41.4h-7.859zM304.314 66.421h-12.42v34.56h-7.859v-34.56h-12.42v-6.84h32.699zM332.694 83.34V77.4c0-7.8-3.081-11.7-9.24-11.7-3.16 0-5.511.96-7.05 2.88-1.541 1.92-2.311 4.86-2.311 8.82v5.94c0 3.802.77 6.622 2.31 8.46 1.54 1.84 3.89 2.76 7.05 2.76 6.16 0 9.24-3.74 9.24-11.22m-22.02 13.74c-3-3.038-4.5-7.578-4.5-13.62v-6.48c0-6.038 1.53-10.578 4.59-13.62 3.06-3.038 7.29-4.56 12.69-4.56 5.32 0 9.5 1.522 12.54 4.56 3.04 3.042 4.56 7.582 4.56 13.62v6.48c0 6-1.55 10.53-4.65 13.59-3.1 3.06-7.33 4.59-12.69 4.59-5.36 0-9.54-1.52-12.54-4.56M354.654 78.001h10.38c4.399 0 6.599-1.94 6.599-5.82 0-1.92-.58-3.36-1.74-4.32-1.16-.96-2.78-1.44-4.86-1.44h-10.38v11.58Zm8.22 6.72h-8.22v16.26h-7.86v-41.4h18c4.519 0 8.089 1.08 10.71 3.24 2.619 2.16 3.929 5.28 3.929 9.36 0 2.961-.71 5.41-2.13 7.35-1.42 1.941-3.51 3.35-6.27 4.23l10.26 17.22h-9.36l-9.06-16.26ZM386.393 100.981h7.859v-41.4h-7.859zM436.552 59.581v41.4h-7.86l-19.14-27.42v27.42h-7.86v-41.4h7.86l19.14 27.48v-27.48zM448.072 97.081c-3.12-3.04-4.681-7.58-4.681-13.62v-6.48c0-6.04 1.56-10.58 4.68-13.62 3.12-3.039 7.46-4.56 13.02-4.56 3.32 0 6.24.55 8.76 1.65 2.52 1.101 4.47 2.71 5.85 4.83s2.07 4.62 2.07 7.5v.48h-7.86v-.24c0-2.199-.78-3.969-2.34-5.31-1.56-1.34-3.72-2.01-6.48-2.01-3.28 0-5.73.95-7.35 2.85-1.62 1.9-2.43 4.83-2.43 8.79v5.94c0 3.88.81 6.73 2.43 8.55 1.62 1.82 4.09 2.73 7.41 2.73 3 0 5.22-.65 6.66-1.95 1.44-1.3 2.16-3.249 2.16-5.85v-1.5h-9.06v-6.48h16.86v6.84c0 5.36-1.49 9.37-4.47 12.03-2.98 2.66-7.07 3.99-12.27 3.99-5.52 0-9.84-1.52-12.96-4.56"/></g></g></svg>