<svg width="400" height="140" xmlns="http://www.w3.org/2000/svg"><g fill="none" fill-rule="evenodd">
    <path fill="#0A94F2" d="M8 6v46.49l31.984 20.416 75.881-47.299-5.383-.407V6z"/><path fill="#0338D6" d="M42.92 98.023L8 75.403v32.226l51.242 26.066 51.24-26.066V49.256l12.396-20.713z"/><g id="text" fill="#03081A"><path d="M136.263 6.638c0-.425.212-.638.638-.638h7.657c.468 0 .83.213 1.085.638l15.315 27.312h.319V6.638c0-.425.213-.638.638-.638h7.21c.426 0 .639.213.639.638v42.117c0 .425-.213.638-.638.638h-7.594c-.468 0-.83-.213-1.084-.638l-15.38-27.248h-.318v27.248c0 .425-.214.638-.638.638H136.9c-.426 0-.638-.213-.638-.638V6.638zM178.06 6.638c0-.425.212-.638.638-.638h27.822c.425 0 .637.213.637.638v6.828c0 .426-.212.638-.637.638h-18.697c-.256 0-.384.128-.384.383v8.615c0 .255.128.383.384.383h15.57c.424 0 .638.213.638.638v6.764c0 .426-.214.638-.639.638h-15.569c-.256 0-.384.128-.384.383v8.997c0 .256.128.384.384.384h18.697c.425 0 .637.213.637.638v6.828c0 .425-.212.638-.637.638h-27.822c-.426 0-.639-.213-.639-.638V6.638zM213.156 49.392c-.426 0-.638-.212-.638-.638v-7.018c0-.213.064-.425.19-.64l18.699-26.608v-.128h-17.55c-.424 0-.637-.212-.637-.638V6.636c0-.424.213-.637.638-.637h27.759c.425 0 .637.213.637.637v7.02c0 .255-.063.47-.191.638l-18.761 26.61v.128h18.315c.425 0 .637.213.637.639v7.083c0 .425-.212.637-.637.637h-28.461zM248.953 6.638c0-.425.213-.638.64-.638h8.103c.424 0 .637.213.637.638V22.91c0 .256.128.383.384.383h14.166c.255 0 .383-.127.383-.383V6.638c0-.425.212-.638.638-.638h8.104c.425 0 .638.213.638.638v42.117c0 .425-.213.638-.638.638h-8.104c-.426 0-.638-.213-.638-.638V32.036c0-.256-.128-.383-.383-.383h-14.166c-.256 0-.384.127-.384.383v16.719c0 .425-.213.638-.637.638h-8.104c-.426 0-.639-.213-.639-.638V6.638zM312.383 33.184l-4.914-15.187h-.19l-4.914 15.187h10.018zM302.62 6.638c.127-.425.403-.638.83-.638h8.04c.424 0 .702.213.83.638l14.676 42.117c.128.425-.022.637-.446.637h-8.296c-.426 0-.702-.212-.83-.637l-2.489-7.594h-15.187l-2.425 7.594c-.127.425-.405.637-.829.637h-8.36c-.426 0-.574-.212-.447-.637L302.62 6.638zM136.263 65.488c0-.425.212-.638.638-.638h7.593c.51 0 .85.213 1.022.638l10.975 24.76h.256l10.784-24.76c.17-.425.51-.638 1.02-.638h7.467c.425 0 .638.213.638.638v42.117c0 .425-.213.638-.638.638h-7.211c-.426 0-.638-.213-.638-.638V83.164h-.255l-8.041 18.315c-.255.553-.66.829-1.212.829h-4.403c-.553 0-.957-.276-1.212-.83l-8.041-18.314h-.255v24.44c0 .426-.214.639-.638.639H136.9c-.426 0-.638-.213-.638-.638V65.488zM200.84 100.648c1.786 0 3.254-.424 4.403-1.276 1.148-.85 1.956-2.02 2.424-3.509.128-.384.234-.819.32-1.309.084-.488.16-1.085.223-1.786.064-.702.105-1.564.128-2.585.021-1.02.031-2.234.031-3.638 0-1.403-.01-2.615-.03-3.637a39.007 39.007 0 00-.129-2.584 23.187 23.187 0 00-.223-1.786 9.163 9.163 0 00-.32-1.309c-.468-1.489-1.276-2.658-2.424-3.51-1.149-.85-2.617-1.275-4.403-1.275-1.787 0-3.255.425-4.404 1.275-1.148.852-1.957 2.021-2.424 3.51-.128.383-.235.82-.319 1.31-.086.488-.16 1.083-.224 1.785a37.758 37.758 0 00-.127 2.584 172.873 172.873 0 00-.032 3.637c0 1.404.01 2.617.032 3.638.021 1.021.063 1.883.127 2.585.064.701.138 1.298.224 1.786.084.49.191.925.32 1.31.466 1.488 1.275 2.657 2.423 3.508 1.15.852 2.617 1.276 4.404 1.276m0 8.296c-3.787 0-7.095-.872-9.923-2.617-2.829-1.744-4.797-4.38-5.903-7.912a19.31 19.31 0 01-.606-2.234 22.763 22.763 0 01-.35-2.424 51.467 51.467 0 01-.192-3.063 111.243 111.243 0 01-.064-4.149c0-1.616.02-2.999.064-4.147.041-1.149.105-2.17.191-3.063.085-.893.202-1.7.351-2.425.148-.723.351-1.467.606-2.233 1.106-3.488 3.074-6.115 5.903-7.88 2.828-1.766 6.136-2.649 9.923-2.649 3.786 0 7.093.883 9.922 2.648 2.83 1.766 4.796 4.393 5.903 7.881.255.766.457 1.51.607 2.233.148.724.265 1.532.35 2.425.085.893.15 1.914.192 3.063.042 1.148.064 2.531.064 4.147 0 1.618-.022 3-.064 4.15a54.058 54.058 0 01-.192 3.062 23.037 23.037 0 01-.35 2.424 19.73 19.73 0 01-.607 2.234c-1.107 3.531-3.073 6.168-5.903 7.912-2.829 1.745-6.136 2.617-9.922 2.617M225.024 65.488c0-.425.213-.638.639-.638h7.657c.467 0 .829.213 1.084.638L249.72 92.8h.319V65.488c0-.425.212-.638.638-.638h7.21c.425 0 .639.213.639.638v42.117c0 .425-.214.638-.64.638h-7.592c-.47 0-.83-.213-1.085-.638L233.83 80.357h-.32v27.248c0 .425-.213.638-.638.638h-7.21c-.426 0-.64-.213-.64-.638V65.488zM266.82 65.488c0-.425.214-.638.64-.638h8.104c.424 0 .637.213.637.638v42.117c0 .425-.213.638-.637.638h-8.104c-.426 0-.64-.213-.64-.638V65.488zM294.069 108.242c-.426 0-.64-.212-.64-.638V73.592c0-.255-.126-.383-.381-.383h-10.976c-.426 0-.64-.212-.64-.638v-7.084c0-.424.214-.637.64-.637h32.098c.425 0 .637.213.637.637v7.084c0 .426-.212.638-.637.638h-10.976c-.255 0-.383.128-.383.383v34.012c0 .426-.213.638-.638.638h-8.104zM334.782 100.648c1.786 0 3.254-.424 4.403-1.276 1.148-.85 1.956-2.02 2.424-3.509.128-.384.234-.819.32-1.309.084-.488.159-1.085.223-1.786.064-.702.105-1.564.128-2.585.02-1.02.03-2.234.03-3.638 0-1.403-.01-2.615-.03-3.637a39.007 39.007 0 00-.128-2.584 23.187 23.187 0 00-.223-1.786 9.163 9.163 0 00-.32-1.309c-.468-1.489-1.276-2.658-2.424-3.51-1.15-.85-2.617-1.275-4.403-1.275-1.787 0-3.255.425-4.404 1.275-1.148.852-1.957 2.021-2.424 3.51-.128.383-.235.82-.32 1.31-.085.488-.16 1.083-.223 1.785a37.758 37.758 0 00-.127 2.584 172.873 172.873 0 00-.032 3.637c0 1.404.01 2.617.032 3.638.02 1.021.063 1.883.127 2.585.064.701.138 1.298.224 1.786.084.49.19.925.319 1.31.467 1.488 1.276 2.657 2.424 3.508 1.149.852 2.617 1.276 4.404 1.276m0 8.296c-3.787 0-7.095-.872-9.923-2.617-2.83-1.744-4.797-4.38-5.903-7.912a19.31 19.31 0 01-.606-2.234 22.763 22.763 0 01-.351-2.424 51.467 51.467 0 01-.191-3.063 111.243 111.243 0 01-.064-4.149c0-1.616.02-2.999.064-4.147.04-1.149.105-2.17.19-3.063.086-.893.203-1.7.352-2.425.148-.723.35-1.467.606-2.233 1.106-3.488 3.074-6.115 5.903-7.88 2.828-1.766 6.136-2.649 9.923-2.649 3.786 0 7.093.883 9.922 2.648 2.83 1.766 4.796 4.393 5.903 7.881.255.766.457 1.51.607 2.233.148.724.265 1.532.35 2.425.085.893.149 1.914.192 3.063.042 1.148.064 2.531.064 4.147 0 1.618-.022 3-.064 4.15a54.058 54.058 0 01-.192 3.062 23.037 23.037 0 01-.35 2.424 19.73 19.73 0 01-.607 2.234c-1.107 3.531-3.073 6.168-5.903 7.912-2.83 1.745-6.136 2.617-9.922 2.617M380.661 82.27c1.064-.977 1.595-2.297 1.595-3.955 0-1.617-.531-2.914-1.595-3.893-1.064-.978-2.489-1.468-4.276-1.468h-7.657c-.255 0-.383.128-.383.383v10.018c0 .256.128.383.383.383h7.657c1.787 0 3.212-.488 4.276-1.467zm2.298 25.972c-.469 0-.788-.212-.958-.638l-7.465-15.89h-5.808c-.255 0-.383.129-.383.384v15.506c0 .426-.213.638-.638.638h-8.104c-.426 0-.639-.212-.639-.638V65.488c0-.425.213-.638.64-.638h17.292c2.211 0 4.221.33 6.03.989 1.808.66 3.36 1.585 4.658 2.776a12.16 12.16 0 013 4.276c.702 1.659 1.053 3.467 1.053 5.424 0 2.807-.682 5.254-2.042 7.338-1.363 2.085-3.255 3.659-5.68 4.722l8.552 17.1c.083.215.083.395 0 .544-.087.15-.235.223-.448.223h-9.06z"/></g></g>
    <style>
        #text {
            fill: #03081A;
        }
        @media (prefers-color-scheme: dark) {
            #text {
                fill: white;
            }
        }
    </style>
</svg>