<svg width="557.5" height="200" xmlns="http://www.w3.org/2000/svg">
    <g fill="none" fill-rule="evenodd">
        <path fill="#0A94F2" d="M30 17v61.84L73.588 106 177 43.082l-7.336-.542V17z"></path>
        <path fill="#0338D6" d="M77.42 139.845L30 109.943v42.6L99.585 187l69.582-34.457V75.38L186 48z"></path>
    </g>
    <style>
        #text {
            fill: #03081A;
        }
        @media (prefers-color-scheme: dark) {
            #text {
                fill: white;
            }
        }
    </style>
    <path id="text" d="M 253.26254272460938 51.073001861572266 L 253.26254272460938 -12.520748138427734 L 260.8504333496094 -12.520748138427734 L 274.3279724121094 25.635501861572266 L 273.6414489746094 8.291751861572266 L 273.6414489746094 -12.520748138427734 L 282.3494567871094 -12.520748138427734 L 282.3494567871094 51.073001861572266 L 275.4842224121094 51.073001861572266 L 261.6453552246094 11.579837799072266 L 262.1873474121094 28.273197174072266 L 262.1873474121094 51.073001861572266 Z M 291.88653564453125 51.073001861572266 L 291.88653564453125 -12.520748138427734 L 313.20489501953125 -12.520748138427734 L 313.20489501953125 -4.174068450927734 L 301.57012939453125 -4.174068450927734 L 301.57012939453125 14.325931549072266 L 312.62677001953125 14.325931549072266 L 312.62677001953125 22.491947174072266 L 301.57012939453125 22.491947174072266 L 301.57012939453125 42.726322174072266 L 313.63848876953125 42.726322174072266 L 313.63848876953125 51.073001861572266 Z M 318.2969665527344 51.073001861572266 L 318.2969665527344 42.473392486572266 L 331.4854431152344 -4.174068450927734 L 319.4893493652344 -4.174068450927734 L 319.4893493652344 -12.520748138427734 L 341.6387634277344 -12.520748138427734 L 341.6387634277344 -4.679927825927734 L 328.4502868652344 42.726322174072266 L 341.3497009277344 42.726322174072266 L 341.3497009277344 51.073001861572266 Z M 347.8171081542969 51.073001861572266 L 347.8171081542969 -12.520748138427734 L 357.5007019042969 -12.520748138427734 L 357.5007019042969 13.205814361572266 L 366.1725769042969 13.205814361572266 L 366.1725769042969 -12.520748138427734 L 375.8561706542969 -12.520748138427734 L 375.8561706542969 51.073001861572266 L 366.1725769042969 51.073001861572266 L 366.1725769042969 21.516361236572266 L 357.5007019042969 21.516361236572266 L 357.5007019042969 51.073001861572266 Z M 381.63458251953125 51.073001861572266 L 390.70391845703125 -12.520748138427734 L 403.49493408203125 -12.520748138427734 L 413.14239501953125 51.073001861572266 L 404.10919189453125 51.073001861572266 L 402.59161376953125 39.727298736572266 L 392.32989501953125 39.727298736572266 L 390.95684814453125 51.073001861572266 Z M 393.26934814453125 31.958744049072266 L 401.57989501953125 31.958744049072266 L 397.31622314453125 0.017337799072265625 L 397.17169189453125 0.017337799072265625 Z" transform="matrix(1, 0, 0, 1, -54.99993896484375, 29.615379333496094)" style="white-space: pre;"></path>
    <path id="text" d="M 253.26254272460938 125.072998046875 L 253.26254272460938 61.479248046875 L 265.2947692871094 61.479248046875 L 274.3279724121094 107.946044921875 L 282.8191833496094 61.479248046875 L 294.9236755371094 61.479248046875 L 294.9236755371094 125.072998046875 L 286.2879333496094 125.072998046875 L 286.2879333496094 101.369873046875 L 286.6492614746094 79.617919921875 L 278.0857849121094 124.783935546875 L 270.3894958496094 124.783935546875 L 261.4646911621094 79.617919921875 L 261.8260192871094 101.369873046875 L 261.8260192871094 125.072998046875 Z M 317.8645935058594 125.795654296875 Q 312.9143981933594 125.795654296875 309.7889099121094 123.699951171875 Q 306.6634216308594 121.604248046875 305.1819763183594 117.485107421875 Q 303.7005310058594 113.365966796875 303.7005310058594 107.295654296875 L 303.7005310058594 78.208740234375 Q 303.7005310058594 72.716552734375 305.1458435058594 68.814208984375 Q 306.5911560058594 64.911865234375 309.7347106933594 62.816162109375 Q 312.8782653808594 60.720458984375 317.9729919433594 60.720458984375 Q 321.8030700683594 60.720458984375 324.4407653808594 61.912841796875 Q 327.0784606933594 63.105224609375 328.7044372558594 65.363525390625 Q 330.3304138183594 67.621826171875 331.0711364746094 70.855712890625 Q 331.8118591308594 74.089599609375 331.8118591308594 78.208740234375 L 331.8118591308594 107.295654296875 Q 331.8118591308594 113.365966796875 330.3846130371094 117.485107421875 Q 328.9573669433594 121.604248046875 325.8860778808594 123.699951171875 Q 322.8147888183594 125.795654296875 317.8645935058594 125.795654296875 Z M 317.8645935058594 117.412841796875 Q 319.6712341308594 117.412841796875 320.5745544433594 116.328857421875 Q 321.4778747558594 115.244873046875 321.7850036621094 113.022705078125 Q 322.0921325683594 110.800537109375 322.0921325683594 107.404052734375 L 322.0921325683594 77.775146484375 Q 322.0921325683594 73.619873046875 321.3152770996094 71.361572265625 Q 320.5384216308594 69.103271484375 317.9729919433594 69.103271484375 Q 315.3352966308594 69.103271484375 314.3958435058594 71.289306640625 Q 313.4563903808594 73.475341796875 313.4563903808594 77.739013671875 L 313.4563903808594 107.404052734375 Q 313.4563903808594 110.872802734375 313.7635192871094 113.094970703125 Q 314.0706481933594 115.317138671875 315.0281677246094 116.364990234375 Q 315.9856872558594 117.412841796875 317.8645935058594 117.412841796875 Z M 340.58660888671875 125.072998046875 L 340.58660888671875 61.479248046875 L 348.17449951171875 61.479248046875 L 361.65203857421875 99.635498046875 L 360.96551513671875 82.291748046875 L 360.96551513671875 61.479248046875 L 369.67352294921875 61.479248046875 L 369.67352294921875 125.072998046875 L 362.80828857421875 125.072998046875 L 348.96942138671875 85.579833984375 L 349.51141357421875 102.273193359375 L 349.51141357421875 125.072998046875 Z M 379.4273986816406 125.072998046875 L 379.4273986816406 61.479248046875 L 389.1109924316406 61.479248046875 L 389.1109924316406 125.072998046875 Z M 402.1595764160156 125.072998046875 L 402.1595764160156 69.862060546875 L 394.7162170410156 69.862060546875 L 394.7162170410156 61.479248046875 L 418.9613342285156 61.479248046875 L 418.9613342285156 69.862060546875 L 411.8070373535156 69.862060546875 L 411.8070373535156 125.072998046875 Z M 437.7474060058594 125.795654296875 Q 432.7972106933594 125.795654296875 429.6717224121094 123.699951171875 Q 426.5462341308594 121.604248046875 425.0647888183594 117.485107421875 Q 423.5833435058594 113.365966796875 423.5833435058594 107.295654296875 L 423.5833435058594 78.208740234375 Q 423.5833435058594 72.716552734375 425.0286560058594 68.814208984375 Q 426.4739685058594 64.911865234375 429.6175231933594 62.816162109375 Q 432.7610778808594 60.720458984375 437.8558044433594 60.720458984375 Q 441.6858825683594 60.720458984375 444.3235778808594 61.912841796875 Q 446.9612731933594 63.105224609375 448.5872497558594 65.363525390625 Q 450.2132263183594 67.621826171875 450.9539489746094 70.855712890625 Q 451.6946716308594 74.089599609375 451.6946716308594 78.208740234375 L 451.6946716308594 107.295654296875 Q 451.6946716308594 113.365966796875 450.2674255371094 117.485107421875 Q 448.8401794433594 121.604248046875 445.7688903808594 123.699951171875 Q 442.6976013183594 125.795654296875 437.7474060058594 125.795654296875 Z M 437.7474060058594 117.412841796875 Q 439.5540466308594 117.412841796875 440.4573669433594 116.328857421875 Q 441.3606872558594 115.244873046875 441.6678161621094 113.022705078125 Q 441.9749450683594 110.800537109375 441.9749450683594 107.404052734375 L 441.9749450683594 77.775146484375 Q 441.9749450683594 73.619873046875 441.1980895996094 71.361572265625 Q 440.4212341308594 69.103271484375 437.8558044433594 69.103271484375 Q 435.2181091308594 69.103271484375 434.2786560058594 71.289306640625 Q 433.3392028808594 73.475341796875 433.3392028808594 77.739013671875 L 433.3392028808594 107.404052734375 Q 433.3392028808594 110.872802734375 433.6463317871094 113.094970703125 Q 433.9534606933594 115.317138671875 434.9109802246094 116.364990234375 Q 435.8684997558594 117.412841796875 437.7474060058594 117.412841796875 Z M 460.4755554199219 125.072998046875 L 460.4755554199219 61.479248046875 L 476.4823913574219 61.479248046875 Q 481.4687194824219 61.479248046875 483.9257507324219 63.430419921875 Q 486.3827819824219 65.381591796875 487.1596374511719 69.139404296875 Q 487.9364929199219 72.897216796875 487.9364929199219 78.317138671875 Q 487.9364929199219 83.917724609375 486.7983093261719 87.115478515625 Q 485.6601257324219 90.313232421875 482.1552429199219 91.397216796875 Q 483.8173522949219 91.686279296875 484.9374694824219 92.752197265625 Q 486.0575866699219 93.818115234375 486.7441101074219 95.859619140625 Q 487.4306335449219 97.901123046875 487.7377624511719 101.098876953125 Q 488.0448913574219 104.296630859375 488.0448913574219 108.921630859375 Q 488.0448913574219 109.282958984375 488.0448913574219 110.945068359375 Q 488.0448913574219 112.607177734375 488.0629577636719 114.865478515625 Q 488.0810241699219 117.123779296875 488.1171569824219 119.364013671875 Q 488.1532897949219 121.604248046875 488.2255554199219 123.194091796875 Q 488.2978210449219 124.783935546875 488.4062194824219 125.072998046875 L 478.7226257324219 125.072998046875 Q 478.6142272949219 124.892333984375 478.5600280761719 123.212158203125 Q 478.5058288574219 121.531982421875 478.4516296386719 118.930419921875 Q 478.3974304199219 116.328857421875 478.3793640136719 113.329833984375 Q 478.3612976074219 110.330810546875 478.3612976074219 107.422119140625 Q 478.3612976074219 104.513427734375 478.3612976074219 102.273193359375 Q 478.3612976074219 99.418701171875 477.9457702636719 97.955322265625 Q 477.5302429199219 96.491943359375 476.4281921386719 95.913818359375 Q 475.3261413574219 95.335693359375 473.2665710449219 95.227294921875 L 470.1591491699219 95.046630859375 L 470.1591491699219 125.072998046875 Z M 470.1952819824219 87.531005859375 L 474.0614929199219 87.531005859375 Q 475.8320007324219 87.531005859375 476.7533874511719 86.736083984375 Q 477.6747741699219 85.941162109375 478.0180358886719 83.809326171875 Q 478.3612976074219 81.677490234375 478.3612976074219 77.666748046875 L 478.3612976074219 77.269287109375 Q 478.3612976074219 73.908935546875 478.0361022949219 72.102294921875 Q 477.7109069824219 70.295654296875 476.6811218261719 69.609130859375 Q 475.6513366699219 68.922607421875 473.4833679199219 68.922607421875 L 470.1952819824219 68.922607421875 Z M 496.4952697753906 125.072998046875 L 496.4952697753906 61.479248046875 L 506.1788635253906 61.479248046875 L 506.1788635253906 125.072998046875 Z M 515.8971252441406 125.072998046875 L 515.8971252441406 61.479248046875 L 523.4850158691406 61.479248046875 L 536.9625549316406 99.635498046875 L 536.2760314941406 82.291748046875 L 536.2760314941406 61.479248046875 L 544.9840393066406 61.479248046875 L 544.9840393066406 125.072998046875 L 538.1188049316406 125.072998046875 L 524.2799377441406 85.579833984375 L 524.8219299316406 102.273193359375 L 524.8219299316406 125.072998046875 Z M 566.4810791015625 125.723388671875 Q 560.7359619140625 125.723388671875 557.2310791015625 121.188720703125 Q 553.7261962890625 116.654052734375 553.7261962890625 106.464599609375 L 553.7261962890625 78.822998046875 Q 553.7261962890625 74.559326171875 554.5391845703125 71.198974609375 Q 555.3521728515625 67.838623046875 557.0684814453125 65.508056640625 Q 558.7847900390625 63.177490234375 561.5308837890625 61.967041015625 Q 564.2769775390625 60.756591796875 568.1431884765625 60.756591796875 Q 572.3345947265625 60.756591796875 574.9722900390625 62.003173828125 Q 577.6099853515625 63.249755859375 579.0372314453125 65.616455078125 Q 580.4644775390625 67.983154296875 581.0064697265625 71.415771484375 Q 581.5484619140625 74.848388671875 581.5484619140625 79.184326171875 L 581.5484619140625 83.700927734375 L 572.5152587890625 83.700927734375 L 572.5152587890625 77.052490234375 Q 572.5152587890625 72.752685546875 571.6300048828125 70.946044921875 Q 570.7447509765625 69.139404296875 568.2877197265625 69.139404296875 Q 565.5777587890625 69.139404296875 564.5299072265625 71.253173828125 Q 563.4820556640625 73.366943359375 563.4820556640625 78.750732421875 L 563.4820556640625 106.320068359375 Q 563.4820556640625 112.318115234375 564.3673095703125 114.901611328125 Q 565.2525634765625 117.485107421875 568.0709228515625 117.485107421875 Q 570.8170166015625 117.485107421875 571.9552001953125 114.829345703125 Q 573.0933837890625 112.173583984375 573.0933837890625 105.958740234375 L 573.0933837890625 97.395263671875 L 568.2154541015625 97.395263671875 L 568.2154541015625 90.349365234375 L 581.5484619140625 90.349365234375 L 581.5484619140625 125.072998046875 L 577.2125244140625 125.072998046875 L 575.7310791015625 118.822021484375 Q 574.9361572265625 122.110107421875 572.3526611328125 123.916748046875 Q 569.7691650390625 125.723388671875 566.4810791015625 125.723388671875 Z" transform="matrix(1, 0, 0, 1, -54.99993896484375, 29.615379333496094)" style="white-space: pre;"></path>
</svg>